<svg xmlns="http://www.w3.org/2000/svg" xml:space="preserve" width="1500" height="1500" data-id="lg_iGGSKapNX4mpMaHfxg" data-version="1" viewBox="0 0 1500 1500"><path fill="#fff" stroke="transparent" d="M0 0h1500v1500H0z"/><g data-padding="20"><g transform="translate(-571.429 -565.476)scale(1.70068)"><path d="M777 1053.5c-115.983 0-210-94.017-210-210v-140c0-115.983 94.017-210 210-210s210 94.017 210 210v140c0 115.983-94.017 210-210 210"/><path fill="none" stroke="#eaeaea" stroke-width="3" d="M107.47 146.165c-16.57 0-30-13.43-30-30v-20c0-16.569 13.43-30 30-30s30 13.431 30 30v20c0 16.57-13.431 30-30 30" paint-order="stroke" transform="matrix(6.56 0 0 6.65 71.85 67.16)"/><path fill="#4866f0" d="M775.21 724.052c-14.364 0-26.082 11.718-26.46 26.082v9.45h52.92v-9.45a26.46 26.46 0 0 0-26.46-26.082"/><path fill="#4866f0" d="M775.21 601.58s-75.6 66.528-151.578 66.528c0 65.394.378 129.276 28.35 178.794 28.728 50.652 84.672 86.184 123.228 94.878 38.178-9.828 91.854-45.738 120.204-95.256s31.374-112.644 31.374-178.416c-75.978 0-151.578-66.528-151.578-66.528m45.36 220.752c0 4.536-3.78 8.694-8.694 8.694h-73.332c-4.536 0-8.694-3.78-8.694-8.694v-62.748h7.56v-9.45c0-20.877 16.923-37.8 37.8-37.8s37.8 16.923 37.8 37.8v9.45h7.56Z"/><rect width="374.83" height="134.027" x="217.961" y="334.599" rx="0" ry="0" transform="matrix(.93 0 0 .93 399.03 399.53)"/><g fill="#fff" stroke="#eaeaea" stroke-width="3" transform="matrix(.93 0 0 .93 399.15 336.093)"><path d="M219.31 401.613h372.133" vector-effect="non-scaling-stroke"/>undefined
        undefined</g><g fill="#fff" stroke="#eaeaea" stroke-width="3" transform="matrix(.93 0 0 .93 398.91 462.927)"><path d="M219.31 401.613h372.133" vector-effect="non-scaling-stroke"/>undefined
        undefined</g><rect width="334.907" height="63.28" x="209.547" y="341.86" fill="none" rx="0" ry="0" transform="translate(400.38 401.77)"/><path fill="#eaeaea" d="M619.33 792.37h-9.44l12.24-40.71h13.63L648 792.37h-9.44l-3.66-13.16 4.92 3.7h-20.07l.5-7.06h17.61l-2.99 3.25-3.7-13.24-2.04-8.32h-.45l-2.02 8.32Zm46.09.56q-4.82 0-8.39-1.92-3.57-1.91-5.54-5.54-1.98-3.63-1.98-8.72v-25.09h8.99v24.05q0 2.35.43 4.09.44 1.74 1.32 2.9t2.18 1.72q1.31.56 3.04.56 1.71 0 2.98-.56 1.28-.56 2.13-1.71.86-1.15 1.29-2.9t.43-4.1v-24.05h8.99v25.09q0 5.01-1.96 8.65t-5.51 5.59q-3.56 1.94-8.4 1.94m39.56-.56h-8.9v-29.29q0-1.68.61-2.43.62-.76 1.88-.95h-12.55v-8.04h28.96v8.04h-10Zm46.34 0h-8.93v-40.71h8.93Zm-22.51 0h-8.93v-40.71h8.93Zm15.03-16.88h-17.66v-8.01h17.69Zm32.64 17.44q-5.49 0-9.8-2.49t-6.79-7.22q-2.48-4.74-2.48-11.48 0-6.64 2.41-11.29t6.67-7.1q4.25-2.45 9.77-2.45 4.03 0 7.56 1.57t5.75 4.62q2.23 3.05 2.37 7.56h-8.57q-.2-.73-.64-1.64-.45-.91-1.28-1.75-.82-.84-2.08-1.37t-3.08-.53q-2.27 0-4.08.8-1.8.8-3.08 2.38-1.27 1.58-1.94 3.93-.68 2.35-.68 5.46 0 4.03 1.1 6.83 1.09 2.8 3.34 4.26 2.26 1.46 5.76 1.46 1.28 0 2.66-.21 1.37-.21 2.6-.66t2.07-1.15v-4.9h-7.03v-7.39h15.43v17.16q-3.41 2.55-7.26 4.08-3.85 1.52-8.7 1.52m38.06 0q-4.81 0-8.38-1.92-3.57-1.91-5.55-5.54-1.97-3.63-1.97-8.72v-25.09h8.99v24.05q0 2.35.43 4.09.44 1.74 1.32 2.9t2.18 1.72 3.04.56q1.71 0 2.98-.56 1.28-.56 2.13-1.71t1.29-2.9q.43-1.75.43-4.1v-24.05h8.99v25.09q0 5.01-1.96 8.65t-5.52 5.59q-3.55 1.94-8.4 1.94m26.86-.56h-9.44l12.24-40.71h13.63l12.24 40.71h-9.44l-3.67-13.16 4.93 3.7h-20.07l.5-7.06h17.61l-2.99 3.25-3.7-13.24-2.04-8.32h-.45l-2.02 8.32Zm64.76 0h-10.5l-8.76-15.65h-4.32l-1.87-.42.81-5.6v-.9h5.91q1.96 0 3.15-.67t1.72-1.89.53-2.87q0-2.04-.73-3.08-.72-1.03-1.91-1.41t-2.65-.38l-4.45-.03-1.96-3.16-.45-4.65h8.01q3.92 0 6.9 1.32 2.98 1.31 4.66 3.97t1.68 6.67q0 3.1-1.17 5.81-1.18 2.7-3.67 4.39-2.49 1.7-6.44 1.86l1.12-.44q1.09 0 2.01.19.93.2 1.71.73.79.53 1.4 1.51Zm-23.04 0h-8.88v-40.71h8.88Zm39.81 0h-6.13l-.03-8.12h4.57q4.28 0 7-1.26 2.71-1.26 4.01-4.03 1.31-2.77 1.31-7.31 0-4.48-1.26-7.1-1.26-2.61-3.98-3.73t-7.11-1.12h-4.73v-8.04h6.1q6.47 0 10.96 2.27 4.5 2.27 6.85 6.69t2.35 10.92q0 6.55-2.44 11.21-2.43 4.67-6.9 7.14-4.46 2.48-10.57 2.48m-4.06 0h-8.9v-40.71h8.9Z"/><rect width="97.256" height="24.86" x="328.372" y="361.07" fill="none" rx="0" ry="0" transform="translate(400.38 626.28)"/><path fill="#eaeaea" d="M731.1 990.43h9.71v1.74h-7.57v5.23h6.13v1.67h-6.13v5.38h7.57v1.74h-9.71Zm21.38 1.45-.52 1.01q-.1.17-.21.25t-.28.08q-.19 0-.44-.18-.24-.19-.62-.42-.38-.22-.92-.41-.53-.19-1.29-.19-.71 0-1.26.2-.55.19-.92.52t-.56.77q-.18.45-.18.97 0 .66.32 1.09.32.44.86.74.53.31 1.21.54.67.22 1.38.46.71.25 1.39.55t1.21.76q.53.47.86 1.14.32.67.32 1.65 0 1.03-.35 1.94t-1.03 1.58q-.67.67-1.66 1.05-.98.39-2.24.39-1.53 0-2.79-.56-1.26-.55-2.15-1.5l.62-1.01q.09-.12.21-.21.13-.08.28-.08.24 0 .53.25.3.25.74.54.45.3 1.08.55.64.25 1.55.25.76 0 1.35-.21.6-.21 1.01-.59t.63-.91.22-1.18q0-.71-.32-1.17-.33-.45-.86-.76-.52-.31-1.2-.52-.68-.22-1.39-.44-.71-.23-1.38-.53-.68-.29-1.21-.77-.53-.47-.85-1.18t-.32-1.75q0-.84.32-1.62t.94-1.39q.62-.6 1.52-.96.91-.37 2.09-.37 1.32 0 2.41.42t1.9 1.21m1.45-1.45h12.35v1.79h-5.1v13.97h-2.13v-13.97h-5.12Zm11.67 14.55q0-.28.11-.54.1-.25.28-.44.19-.18.44-.29t.54-.11q.28 0 .54.11.25.11.44.29.18.19.29.44.1.26.1.54 0 .3-.1.55-.11.24-.29.43-.19.19-.44.29-.26.11-.54.11-.29 0-.54-.11-.25-.1-.44-.29-.18-.19-.28-.43-.11-.25-.11-.55m14.56-14.73q1 0 1.87.3t1.5.86q.63.57.99 1.38.37.82.37 1.85 0 .88-.27 1.63-.26.75-.71 1.43-.45.69-1.04 1.34-.59.64-1.25 1.31l-4.15 4.25q.44-.12.89-.2.45-.07.87-.07h5.28q.32 0 .51.19t.19.48v1.19h-10.52v-.67q0-.21.08-.43t.27-.41l5.05-5.07q.63-.63 1.14-1.22.52-.59.89-1.19.37-.59.57-1.2.19-.61.19-1.3 0-.7-.22-1.22t-.6-.86q-.39-.34-.9-.51-.52-.17-1.11-.17-.6 0-1.1.17-.51.18-.9.49t-.66.74-.38.95q-.09.32-.26.46-.18.14-.47.14h-.11q-.06-.01-.14-.02l-1.02-.17q.15-1.08.59-1.91t1.12-1.39 1.55-.86q.87-.29 1.89-.29m18.25 8.06q0 2.06-.45 3.58-.45 1.51-1.22 2.5t-1.82 1.47q-1.05.49-2.25.49-1.21 0-2.25-.49-1.03-.48-1.8-1.47t-1.21-2.5q-.44-1.52-.44-3.58 0-2.07.44-3.59t1.21-2.51q.77-1 1.8-1.48 1.04-.49 2.25-.49 1.2 0 2.25.49 1.05.48 1.82 1.48.77.99 1.22 2.51t.45 3.59m-2.04 0q0-1.81-.3-3.04-.3-1.22-.82-1.97-.51-.75-1.18-1.07-.67-.33-1.4-.33-.72 0-1.39.33-.67.32-1.18 1.07t-.81 1.97q-.3 1.23-.3 3.04 0 1.8.3 3.02t.81 1.97 1.18 1.07q.67.33 1.39.33.73 0 1.4-.33.67-.32 1.18-1.07.52-.75.82-1.97t.3-3.02m9.31-8.06q1 0 1.87.3t1.5.86q.63.57.99 1.38.37.82.37 1.85 0 .88-.27 1.63-.26.75-.71 1.43-.45.69-1.04 1.34-.59.64-1.25 1.31l-4.15 4.25q.44-.12.89-.2.45-.07.87-.07h5.28q.32 0 .51.19t.19.48v1.19h-10.52v-.67q0-.21.08-.43t.27-.41l5.05-5.07q.63-.63 1.14-1.22.52-.59.89-1.19.37-.59.57-1.2.19-.61.19-1.3 0-.7-.22-1.22t-.6-.86q-.39-.34-.9-.51-.52-.17-1.11-.17-.6 0-1.1.17-.51.18-.9.49t-.66.74-.38.95q-.09.32-.26.46-.18.14-.47.14h-.11q-.06-.01-.14-.02l-1.02-.17q.15-1.08.59-1.91t1.12-1.39 1.55-.86q.87-.29 1.89-.29m16.08.18v10.07h2.39v1.13q0 .17-.11.29-.1.12-.32.12h-1.96v4.15h-1.73v-4.15h-6.98q-.22 0-.38-.12-.16-.13-.21-.32l-.19-1 7.66-10.17Zm-1.73 10.07V994q0-.28.02-.61.01-.33.07-.68l-5.73 7.79Z"/></g><path fill="transparent" stroke="transparent" stroke-width="1.786" d="M375 250h750v1000H375z"/></g></svg>